<svg preserveAspectRatio="none" overflow="visible" style="display: block;" width="530.128" height="539.381" viewBox="0 0 530.128 539.381" fill="none" xmlns="http://www.w3.org/2000/svg">
<g id="Group">
<path id="Vector" d="M219.453 0L182.053 378.097L520.874 475.927L530.128 129.557L219.453 0Z" fill="url(#paint0_linear_0_15)"/>
<path id="Vector_2" d="M0 462.704L182.056 378.095L520.877 475.925L301.421 539.381L0 462.704Z" fill="#0464A0"/>
<g id="Group_2">
<path id="Vector_3" d="M219.456 0.00164584L182.056 378.099L0.000218206 462.708L55.5254 150.712L219.456 0.00164584Z" fill="#178DDF"/>
<path id="Vector_4" d="M218.722 1.6984L181.569 377.307L0.71292 461.359L55.8729 151.415L218.722 1.6984Z" fill="#178CDE"/>
<path id="Vector_5" d="M217.998 3.39515L181.091 376.513L1.43216 460.008L56.2268 152.12L217.998 3.39515Z" fill="#168CDD"/>
<path id="Vector_6" d="M217.277 5.09191L180.617 375.72L2.15794 458.659L56.5855 152.824L217.277 5.09191Z" fill="#168BDC"/>
<path id="Vector_7" d="M216.566 6.7952L180.151 374.935L2.89026 457.315L56.9543 153.536L216.566 6.7952Z" fill="#158ADB"/>
<path id="Vector_8" d="M215.845 8.49196L179.677 374.142L3.61604 455.965L57.313 154.24L215.845 8.49196Z" fill="#158ADA"/>
<path id="Vector_9" d="M215.114 10.1953L179.192 373.357L4.32874 454.623L57.6604 154.952L215.114 10.1953Z" fill="#1589D9"/>
<path id="Vector_10" d="M214.387 11.8855L178.711 372.556L5.04798 453.265L58.0143 155.65L214.387 11.8855Z" fill="#1488D8"/>
<path id="Vector_11" d="M213.676 13.5953L178.246 371.775L5.7803 451.927L58.3814 156.366L213.676 13.5953Z" fill="#1488D7"/>
<path id="Vector_12" d="M212.955 15.2953L177.772 370.986L6.50608 450.581L58.74 157.074L212.955 15.2953Z" fill="#1487D6"/>
<path id="Vector_13" d="M212.224 16.9888L177.288 370.19L7.21878 449.227L59.0875 157.773L212.224 16.9888Z" fill="#1386D5"/>
<path id="Vector_14" d="M211.503 18.6921L176.814 369.403L7.94456 447.885L59.448 158.485L211.503 18.6921Z" fill="#1386D4"/>
<path id="Vector_15" d="M210.792 20.3921L176.348 368.614L8.67688 446.539L59.8149 159.193L210.792 20.3921Z" fill="#1285D3"/>
<path id="Vector_16" d="M210.051 22.0889L175.855 367.822L9.38304 445.188L60.154 159.897L210.051 22.0889Z" fill="#1284D2"/>
<path id="Vector_17" d="M209.334 23.7922L175.383 367.036L10.1088 443.845L60.5163 160.609L209.334 23.7922Z" fill="#1284D1"/>
<path id="Vector_18" d="M208.613 25.4889L174.909 366.242L10.8346 442.496L60.875 161.313L208.613 25.4889Z" fill="#1183D0"/>
<path id="Vector_19" d="M207.882 27.1857L174.423 365.449L11.5473 441.145L61.2225 162.018L207.882 27.1857Z" fill="#1183CF"/>
<path id="Vector_20" d="M207.163 28.889L173.95 364.664L12.2731 439.802L61.5829 162.729L207.163 28.889Z" fill="#1182CE"/>
<path id="Vector_21" d="M206.444 30.5857L173.477 363.871L12.9989 438.453L61.9434 163.434L206.444 30.5857Z" fill="#1081CD"/>
<path id="Vector_22" d="M205.724 32.289L173.003 363.086L13.7246 437.109L62.3021 164.145L205.724 32.289Z" fill="#1081CC"/>
<path id="Vector_23" d="M204.999 33.9858L172.525 362.292L14.4439 435.759L62.6578 164.848L204.999 33.9858Z" fill="#0F80CB"/>
<path id="Vector_24" d="M204.279 35.6858L172.051 361.503L15.1697 434.412L63.0165 165.556L204.279 35.6858Z" fill="#0F7FCA"/>
<path id="Vector_25" d="M203.553 37.3891L171.572 360.717L15.8889 433.069L63.3704 166.267L203.553 37.3891Z" fill="#0F7FC9"/>
<path id="Vector_26" d="M202.834 39.0826L171.098 359.92L16.6147 431.715L63.7291 166.967L202.834 39.0826Z" fill="#0E7EC8"/>
<path id="Vector_27" d="M202.108 40.7891L170.619 359.135L17.3339 430.374L64.0848 167.682L202.108 40.7891Z" fill="#0E7DC7"/>
<path id="Vector_28" d="M201.384 42.4826L170.141 358.34L18.0532 429.021L64.4388 168.383L201.384 42.4826Z" fill="#0E7DC6"/>
<path id="Vector_29" d="M200.67 44.1827L169.673 357.551L18.7855 427.675L64.804 169.091L200.67 44.1827Z" fill="#0D7CC5"/>
<path id="Vector_30" d="M199.939 45.8859L169.188 356.765L19.4982 426.331L65.1532 169.802L199.939 45.8859Z" fill="#0D7BC4"/>
<path id="Vector_31" d="M199.218 47.5827L168.714 355.971L20.224 424.982L65.5119 170.507L199.218 47.5827Z" fill="#0C7BC3"/>
<path id="Vector_32" d="M198.494 49.286L168.237 355.185L20.9432 423.639L65.8658 171.217L198.494 49.286Z" fill="#0C7AC2"/>
<path id="Vector_33" d="M197.779 50.9827L167.769 354.393L21.6755 422.288L66.2329 171.921L197.779 50.9827Z" fill="#0C79C1"/>
<path id="Vector_34" d="M197.049 52.6795L167.284 353.601L22.3882 420.939L66.5803 172.626L197.049 52.6795Z" fill="#0B79C1"/>
<path id="Vector_35" d="M196.321 54.3763L166.804 352.808L23.1075 419.59L66.9324 173.331L196.321 54.3763Z" fill="#0B78C0"/>
<path id="Vector_36" d="M195.61 56.0795L166.338 352.021L23.8398 418.245L67.3012 174.042L195.61 56.0795Z" fill="#0B77BF"/>
<path id="Vector_37" d="M194.883 57.7796L165.858 351.232L24.559 416.899L67.6534 174.75L194.883 57.7796Z" fill="#0A77BE"/>
<path id="Vector_38" d="M194.165 59.4796L165.385 350.443L25.2848 415.553L68.0139 175.458L194.165 59.4796Z" fill="#0A76BD"/>
<path id="Vector_39" d="M193.437 61.1796L164.905 349.654L26.004 414.206L68.3661 176.166L193.437 61.1796Z" fill="#0975BC"/>
<path id="Vector_40" d="M192.72 62.8731L164.433 348.856L26.7298 412.853L68.7283 176.867L192.72 62.8731Z" fill="#0975BB"/>
<path id="Vector_41" d="M191.992 64.5764L163.952 348.071L27.4491 411.511L69.0804 177.577L191.992 64.5764Z" fill="#0974BA"/>
<path id="Vector_42" d="M191.268 66.2764L163.473 347.28L28.1683 410.161L69.4344 178.283L191.268 66.2764Z" fill="#0873B9"/>
<path id="Vector_43" d="M190.547 67.9764L162.999 346.491L28.8941 408.815L69.7949 178.991L190.547 67.9764Z" fill="#0873B8"/>
<path id="Vector_44" d="M189.823 69.6797L162.521 345.703L29.6133 407.471L70.1488 179.702L189.823 69.6797Z" fill="#0872B7"/>
<path id="Vector_45" d="M189.104 71.3732L162.047 344.908L30.3391 406.118L70.5075 180.404L189.104 71.3732Z" fill="#0771B6"/>
<path id="Vector_46" d="M188.385 73.0765L161.575 344.122L31.0649 404.776L70.8698 181.115L188.385 73.0765Z" fill="#0771B5"/>
<path id="Vector_47" d="M187.665 74.7798L161.101 343.336L31.7907 403.431L71.2285 181.826L187.665 74.7798Z" fill="#0670B4"/>
<path id="Vector_48" d="M186.939 76.4766L160.622 342.544L32.5099 402.082L71.5824 182.531L186.939 76.4766Z" fill="#066FB3"/>
<path id="Vector_49" d="M186.227 78.1733L160.154 341.75L33.2422 400.733L71.9494 183.236L186.227 78.1733Z" fill="#066FB2"/>
<path id="Vector_50" d="M185.494 79.8701L159.671 340.958L33.9549 399.382L72.2968 183.939L185.494 79.8701Z" fill="#056EB1"/>
<path id="Vector_51" d="M184.769 81.5701L159.19 340.169L34.6742 398.036L72.649 184.647L184.769 81.5701Z" fill="#056EB0"/>
<path id="Vector_52" d="M184.049 83.2734L158.718 339.383L35.3999 396.693L73.0095 185.358L184.049 83.2734Z" fill="#056DAF"/>
<path id="Vector_53" d="M183.332 84.9701L158.246 338.589L36.1257 395.342L73.3717 186.063L183.332 84.9701Z" fill="#046CAE"/>
<path id="Vector_54" d="M182.604 86.6734L157.766 337.803L36.845 394L73.7239 186.774L182.604 86.6734Z" fill="#046CAD"/>
<path id="Vector_55" d="M181.88 88.3735L157.287 337.014L37.5642 392.654L74.0778 187.482L181.88 88.3735Z" fill="#036BAC"/>
<path id="Vector_56" d="M181.166 90.0669L156.819 336.218L38.2965 391.3L74.4449 188.183L181.166 90.0669Z" fill="#036AAB"/>
<path id="Vector_57" d="M180.435 91.767L156.334 335.428L39.0092 389.952L74.7923 188.89L180.435 91.767Z" fill="#036AAA"/>
<path id="Vector_58" d="M179.707 93.4703L155.854 334.64L39.7285 388.609L75.1444 189.601L179.707 93.4703Z" fill="#0269A9"/>
<path id="Vector_59" d="M178.99 95.1703L155.382 333.851L40.4542 387.262L75.5067 190.307L178.99 95.1703Z" fill="#0268A8"/>
<path id="Vector_60" d="M178.269 96.867L154.908 333.059L41.18 385.912L75.8654 191.012L178.269 96.867Z" fill="#0268A7"/>
<path id="Vector_61" d="M177.551 98.5703L154.435 332.273L41.9058 384.568L76.2258 191.723L177.551 98.5703Z" fill="#0167A6"/>
<path id="Vector_62" d="M176.824 100.261L153.955 331.472L42.625 383.212L76.578 192.421L176.824 100.261Z" fill="#0166A5"/>
<path id="Vector_63" d="M176.113 101.964L153.489 330.687L43.3574 381.87L76.9468 193.132L176.113 101.964Z" fill="#0066A4"/>
<path id="Vector_64" d="M175.372 103.661L152.996 329.894L44.0635 380.519L77.2859 193.837L175.372 103.661Z" fill="#0065A3"/>
</g>
</g>
<defs>
<linearGradient id="paint0_linear_0_15" x1="179.451" y1="374.463" x2="532.213" y2="121.978" gradientUnits="userSpaceOnUse">
<stop stop-color="#189EFE"/>
<stop offset="1" stop-color="#68C1FF"/>
</linearGradient>
</defs>
</svg>
